<svg width="689" height="48" viewBox="0 0 689 48" fill="none" xmlns="http://www.w3.org/2000/svg">
<path d="M191.727 14C190.765 14 190 14.845 190 15.931C190 16.9208 190.568 17.5968 191.421 17.5968H191.464C192.405 17.5968 193.213 16.8965 193.235 15.6658C193.235 14.7002 192.645 14 191.727 14Z" fill="#808080"/>
<path d="M30.9814 24.8921C30.9814 29.2086 33.831 32.2183 37.7797 32.2183C41.7284 32.2183 44.578 29.2086 44.578 24.8921C44.578 20.5756 41.7284 17.566 37.7797 17.566C33.831 17.566 30.9814 20.5756 30.9814 24.8921ZM41.9727 24.8921C41.9727 27.981 40.2426 29.9808 37.7797 29.9808C35.3169 29.9808 33.5868 27.981 33.5868 24.8921C33.5868 21.8033 35.3169 19.8034 37.7797 19.8034C40.2426 19.8034 41.9727 21.8033 41.9727 24.8921Z" fill="#808080"/>
<path d="M51.9149 32.2183C54.907 32.2183 56.6167 29.763 56.6167 26.8128C56.6167 23.8625 54.907 21.4073 51.9149 21.4073C50.5308 21.4073 49.5131 21.9419 48.8414 22.7141V21.6053H46.3989V35.5646H48.8414V30.9115C49.5131 31.6837 50.5308 32.2183 51.9149 32.2183ZM48.7804 26.5158C48.7804 24.5555 49.9202 23.4863 51.4264 23.4863C53.1972 23.4863 54.1539 24.8327 54.1539 26.8128C54.1539 28.7928 53.1972 30.1392 51.4264 30.1392C49.9202 30.1392 48.7804 29.0502 48.7804 27.1296V26.5158Z" fill="#808080"/>
<path d="M63.2268 32.2183C65.364 32.2183 67.0534 31.1293 67.8065 29.3076L65.71 28.5354C65.3843 29.6046 64.4277 30.1986 63.2268 30.1986C61.6595 30.1986 60.5604 29.1096 60.3772 27.3276H67.8675V26.5356C67.8675 23.6843 66.2189 21.4073 63.125 21.4073C60.0312 21.4073 58.0365 23.7635 58.0365 26.8128C58.0365 30.0204 60.1737 32.2183 63.2268 32.2183ZM63.1047 23.4071C64.6516 23.4071 65.3843 24.3971 65.4047 25.5455H60.4993C60.8657 24.1397 61.8427 23.4071 63.1047 23.4071Z" fill="#808080"/>
<path d="M69.7002 32.0005H72.1427V25.902C72.1427 24.4169 73.2622 23.6249 74.3613 23.6249C75.7047 23.6249 76.2339 24.5555 76.2339 25.8426V32.0005H78.6764V25.1495C78.6764 22.9121 77.333 21.4073 75.094 21.4073C73.71 21.4073 72.7533 22.0211 72.1427 22.7141V21.6053H69.7002V32.0005Z" fill="#808080"/>
<path d="M85.8299 17.7838L80.2936 32.0005H82.8786L84.1202 28.7532H90.4299L91.6919 32.0005H94.3176L88.7813 17.7838H85.8299ZM87.2547 20.5954L89.5751 26.5356H84.975L87.2547 20.5954Z" fill="#808080"/>
<path d="M98.5107 17.825H95.9054V32.0417H98.5107V17.825Z" fill="#808080"/>
<path d="M25.0127 23.0053C25.6284 21.2076 25.4164 19.2383 24.4318 17.6031C22.951 15.0951 19.9742 13.8047 17.067 14.4119C15.7736 12.9946 13.9155 12.1885 11.9674 12.2001C8.9957 12.1935 6.35899 14.0547 5.44475 16.8053C3.5357 17.1857 1.88786 18.3481 0.923586 19.9957C-0.568203 22.4971 -0.228119 25.6503 1.76489 27.7954C1.14918 29.5931 1.3612 31.5624 2.34583 33.1976C3.8266 35.7056 6.80339 36.996 9.71064 36.3888C11.0031 37.8061 12.8621 38.6122 14.8102 38.5998C17.7836 38.6072 20.4212 36.7443 21.3354 33.9913C23.2444 33.6109 24.8923 32.4485 25.8566 30.8009C27.3467 28.2995 27.0057 25.1487 25.0136 23.0037L25.0127 23.0053ZM14.8119 36.8747C13.622 36.8764 12.4695 36.4713 11.5561 35.7296C11.5976 35.7081 11.6697 35.6694 11.7164 35.6413L17.1204 32.6052C17.3969 32.4526 17.5665 32.1663 17.5648 31.8569V24.4458L19.8487 25.7287C19.8733 25.7403 19.8894 25.7634 19.8928 25.7898V31.9271C19.8894 34.6562 17.6174 36.8689 14.8119 36.8747ZM3.88511 32.3346C3.28891 31.3331 3.07434 30.1591 3.27873 29.0197C3.31859 29.0428 3.38898 29.0849 3.43902 29.1129L8.84304 32.149C9.11698 32.3049 9.45621 32.3049 9.73099 32.149L16.3283 28.443V31.0088C16.33 31.0352 16.3173 31.0608 16.2961 31.0773L10.8335 34.1455C8.40034 35.5085 5.29294 34.6983 3.88596 32.3346H3.88511ZM2.46287 20.8595C3.05653 19.8562 3.99367 19.089 5.10975 18.6905C5.10975 18.7359 5.10721 18.8159 5.10721 18.872V24.9449C5.10551 25.2535 5.27513 25.5398 5.55076 25.6924L12.148 29.3976L9.86414 30.6805C9.84124 30.6953 9.81241 30.6978 9.78697 30.6871L4.32358 27.6164C1.8955 26.2485 1.06267 23.2264 2.46202 20.8603L2.46287 20.8595ZM21.2277 25.1075L14.6304 21.4015L16.9143 20.1194C16.9372 20.1046 16.966 20.1021 16.9915 20.1128L22.4549 23.1811C24.8872 24.5481 25.7209 27.5751 24.3156 29.9413C23.7211 30.9428 22.7848 31.7101 21.6695 32.1094V25.8549C21.6721 25.5464 21.5033 25.2609 21.2285 25.1075H21.2277ZM23.5006 21.7794C23.4607 21.7554 23.3903 21.7142 23.3403 21.6861L17.9363 18.6501C17.6623 18.4941 17.3231 18.4941 17.0483 18.6501L10.451 22.356V19.7902C10.4493 19.7638 10.462 19.7383 10.4832 19.7218L15.9458 16.656C18.379 15.2906 21.4897 16.1032 22.8925 18.471C23.4853 19.471 23.6999 20.6417 23.4989 21.7794H23.5006ZM9.20942 26.3524L6.92466 25.0695C6.90007 25.058 6.88396 25.0349 6.88056 25.0085V18.8712C6.88226 16.1387 9.16108 13.9244 11.9699 13.926C13.1581 13.926 14.3081 14.3319 15.2215 15.0711C15.18 15.0926 15.1087 15.1314 15.0612 15.1594L9.65721 18.1955C9.38073 18.3481 9.21111 18.6336 9.21281 18.9429L9.20942 26.3508V26.3524ZM10.4502 23.7503L13.3888 22.0995L16.3274 23.7495V27.0504L13.3888 28.7004L10.4502 27.0504V23.7503Z" fill="#808080"/>
<path d="M140.986 13.3032C140.969 13.1641 140.859 13.087 140.767 13.0786C140.676 13.0702 138.896 13.0404 138.896 13.0404C138.896 13.0404 137.406 11.448 137.259 11.286C137.112 11.124 136.825 11.1729 136.713 11.2096C136.712 11.2104 136.434 11.3051 135.965 11.4648C135.887 11.1852 135.772 10.8413 135.607 10.496C135.077 9.38194 134.3 8.79284 133.362 8.79131C133.361 8.79131 133.36 8.79131 133.359 8.79131C133.293 8.79131 133.229 8.79819 133.164 8.8043C133.136 8.76762 133.108 8.73171 133.079 8.69656C132.67 8.21519 132.146 7.98062 131.518 8.00125C130.307 8.03946 129.1 9.00296 128.122 10.7145C127.433 11.9187 126.909 13.4316 126.761 14.6029C125.369 15.0774 124.397 15.409 124.375 15.4166C123.673 15.6596 123.651 15.6833 123.559 16.4123C123.491 16.9631 121.653 32.6085 121.653 32.6085L137.053 35.541L143.727 33.7141C143.727 33.7141 141.004 13.4423 140.986 13.3032ZM135.194 11.7277C134.84 11.8484 134.436 11.9859 133.999 12.1349C133.99 11.4595 133.917 10.5197 133.631 9.70744C134.551 9.89923 135.003 11.0446 135.194 11.7277ZM133.194 12.41C132.387 12.685 131.506 12.9853 130.623 13.2864C130.871 12.2388 131.342 11.1959 131.921 10.512C132.136 10.2576 132.437 9.97411 132.794 9.81212C133.129 10.5823 133.202 11.6727 133.194 12.41ZM131.543 8.88911C131.827 8.88223 132.067 8.951 132.271 9.09923C131.944 9.28643 131.627 9.55539 131.33 9.9061C130.561 10.8154 129.971 12.2266 129.736 13.5882C129.002 13.838 128.285 14.0833 127.624 14.308C128.041 12.1647 129.673 8.94871 131.543 8.88911Z" fill="#808080"/>
<path d="M140.768 13.0793C140.677 13.0709 138.896 13.0411 138.896 13.0411C138.896 13.0411 137.407 11.4488 137.26 11.2868C137.205 11.2264 137.131 11.1951 137.053 11.1821L137.054 35.5402L143.728 33.7141C143.728 33.7141 141.005 13.4431 140.987 13.304C140.97 13.1649 140.859 13.0877 140.768 13.0793Z" fill="#808080"/>
<path d="M133.354 16.8577L132.579 20.0508C132.579 20.0508 131.714 19.6176 130.689 19.6886C129.186 19.7933 129.17 20.837 129.185 21.0991C129.267 22.5272 132.679 22.8389 132.871 26.1841C133.021 28.8156 131.603 30.6157 129.559 30.7578C127.106 30.9282 125.756 29.3351 125.756 29.3351L126.276 26.9008C126.276 26.9008 127.635 28.0301 128.723 27.9545C129.434 27.9048 129.688 27.2683 129.662 26.8182C129.555 24.9554 126.777 25.0654 126.601 22.0045C126.453 19.4289 127.99 16.8188 131.38 16.5834C132.686 16.491 133.354 16.8577 133.354 16.8577Z" fill="#E5E5E5"/>
<path d="M152.516 23.544C151.748 23.0855 151.354 22.699 151.354 22.1677C151.354 21.4917 151.902 21.0575 152.757 21.0575C153.753 21.0575 154.643 21.516 154.643 21.516L155.344 19.15C155.344 19.15 154.699 18.5945 152.801 18.5945C150.159 18.5945 148.328 20.2602 148.328 22.602C148.328 23.9297 149.183 24.9437 150.324 25.6675C151.245 26.2465 151.574 26.6572 151.574 27.2605C151.574 27.888 151.113 28.395 150.258 28.395C148.984 28.395 147.781 27.6705 147.781 27.6705L147.036 30.0365C147.036 30.0365 148.147 30.8572 150.017 30.8572C152.736 30.8572 154.687 29.3847 154.687 26.7292C154.687 25.306 153.7 24.292 152.516 23.544Z" fill="#808080"/>
<path d="M163.347 18.5709C162.009 18.5709 160.957 19.2712 160.146 20.333L160.102 20.3087L161.264 13.6222H158.238L155.301 30.6405H158.326L159.335 24.8232C159.729 22.6262 160.759 21.275 161.724 21.275C162.404 21.275 162.667 21.7819 162.667 22.5065C162.667 22.965 162.623 23.5205 162.536 23.979L161.396 30.6412H164.422L165.605 23.7615C165.737 23.0369 165.825 22.1685 165.825 21.5887C165.824 19.7054 164.925 18.5709 163.347 18.5709Z" fill="#808080"/>
<path d="M172.664 18.571C169.024 18.571 166.613 22.192 166.613 26.223C166.613 28.8058 168.06 30.8815 170.779 30.8815C174.352 30.8815 176.764 27.3575 176.764 23.2295C176.764 20.84 175.492 18.571 172.664 18.571ZM171.173 28.3238C170.143 28.3238 169.704 27.3583 169.704 26.151C169.704 24.2442 170.603 21.1303 172.247 21.1303C173.322 21.1303 173.672 22.1442 173.672 23.134C173.672 25.1855 172.774 28.3238 171.173 28.3238Z" fill="#808080"/>
<path d="M184.503 18.571C182.46 18.571 181.302 20.5505 181.302 20.5505H181.258L181.434 18.7642H178.759C178.628 19.9715 178.386 21.8055 178.145 23.1818L176.041 35.3718H179.066L179.899 30.4473H179.965C179.965 30.4473 180.586 30.8815 181.741 30.8815C185.292 30.8815 187.616 26.8748 187.616 22.8188C187.616 20.5748 186.717 18.571 184.503 18.571ZM181.609 28.3715C180.823 28.3715 180.359 27.8887 180.359 27.8887L180.863 24.7748C181.214 22.699 182.2 21.3227 183.253 21.3227C184.174 21.3227 184.459 22.264 184.459 23.1575C184.459 25.306 183.297 28.3715 181.609 28.3715Z" fill="#808080"/>
<path d="M187.704 30.6405H190.729L192.79 18.837H189.742L187.704 30.6405Z" fill="#808080"/>
<path d="M200.485 18.8127H198.381L198.49 18.2572C198.665 17.1227 199.279 16.1087 200.288 16.1087C200.826 16.1087 201.252 16.2777 201.252 16.2777L201.844 13.6707C201.844 13.6707 201.318 13.3812 200.199 13.3812C199.125 13.3812 198.052 13.7192 197.24 14.4914C196.209 15.457 195.727 16.8567 195.486 18.2572L195.399 18.8127H193.995L193.557 21.3235H194.961L193.36 30.6413H196.386L197.986 21.3235H200.069L200.485 18.8127Z" fill="#808080"/>
<path d="M207.764 18.837C207.764 18.837 205.872 24.0836 205.023 26.9475H204.979C204.921 26.0252 204.233 18.837 204.233 18.837H201.054L202.875 29.675C202.919 29.916 202.897 30.0615 202.809 30.2305C202.458 30.9785 201.866 31.703 201.164 32.2343C200.595 32.6928 199.959 32.9823 199.455 33.1755L200.288 36C200.902 35.8553 202.173 35.2998 203.247 34.1895C204.629 32.7655 205.9 30.5685 207.215 27.575L210.92 18.8362H207.764V18.837Z" fill="#808080"/>
<path d="M266.393 26.3591C266.393 30.2457 263.338 33.1096 259.589 33.1096C255.841 33.1096 252.786 30.2457 252.786 26.3591C252.786 22.4452 255.841 19.6087 259.589 19.6087C263.338 19.6087 266.393 22.4452 266.393 26.3591ZM263.415 26.3591C263.415 23.9304 261.644 22.2687 259.589 22.2687C257.535 22.2687 255.764 23.9304 255.764 26.3591C255.764 28.7635 257.535 30.4496 259.589 30.4496C261.644 30.4496 263.415 28.7604 263.415 26.3591Z" fill="#808080"/>
<path d="M281.07 26.3591C281.07 30.2457 278.015 33.1096 274.266 33.1096C270.518 33.1096 267.463 30.2457 267.463 26.3591C267.463 22.4483 270.518 19.6087 274.266 19.6087C278.015 19.6087 281.07 22.4452 281.07 26.3591ZM278.091 26.3591C278.091 23.9304 276.321 22.2687 274.266 22.2687C272.211 22.2687 270.441 23.9304 270.441 26.3591C270.441 28.7635 272.211 30.4496 274.266 30.4496C276.321 30.4496 278.091 28.7604 278.091 26.3591Z" fill="#808080"/>
<path d="M295.135 20.0165V32.1357C295.135 37.1209 292.181 39.157 288.689 39.157C285.402 39.157 283.424 36.9687 282.678 35.1791L285.271 34.1048C285.732 35.2035 286.864 36.5 288.686 36.5C290.921 36.5 292.306 35.1274 292.306 32.5435V31.5726H292.202C291.536 32.3913 290.252 33.1065 288.631 33.1065C285.24 33.1065 282.134 30.1665 282.134 26.3835C282.134 22.5731 285.24 19.6087 288.631 19.6087C290.249 19.6087 291.533 20.3239 292.202 21.1183H292.306V20.0196H295.135V20.0165ZM292.517 26.3835C292.517 24.0065 290.924 22.2687 288.897 22.2687C286.842 22.2687 285.119 22.4848 285.121 26.3835C285.121 28.7361 286.842 30.4496 288.897 30.4496C290.924 30.4496 292.517 28.7361 292.517 26.3835Z" fill="#808080"/>
<path d="M299.798 12.913V32.6956H296.893V12.913H299.798Z" fill="#808080"/>
<path d="M311.117 28.5809L313.429 30.1148C312.683 31.2135 310.885 33.1065 307.778 33.1065C303.926 33.1065 301.048 30.1422 301.048 26.3561C301.048 22.3417 303.95 19.6057 307.445 19.6057C310.964 19.6057 312.686 22.3935 313.248 23.9L313.557 24.667L304.491 28.4043C305.185 29.7587 306.265 30.4496 307.778 30.4496C309.295 30.4496 310.347 29.707 311.117 28.5809ZM304.002 26.1522L310.062 23.6474C309.729 22.8043 308.726 22.217 307.546 22.217C306.032 22.217 303.926 23.547 304.002 26.1522Z" fill="#808080"/>
<path d="M241.791 24.6031V21.7392H251.486C251.581 22.2383 251.63 22.8287 251.63 23.4678C251.63 25.6165 251.04 28.2735 249.138 30.1665C247.288 32.0839 244.925 33.1065 241.794 33.1065C235.99 33.1065 231.11 28.4013 231.11 22.6248C231.11 16.8483 235.99 12.1431 241.794 12.1431C245.004 12.1431 247.291 13.397 249.01 15.0313L246.979 17.0522C245.747 15.9018 244.078 15.007 241.791 15.007C237.553 15.007 234.238 18.4065 234.238 22.6248C234.238 26.8431 237.553 30.2426 241.791 30.2426C244.539 30.2426 246.105 29.1439 247.108 28.1457C247.921 27.3361 248.456 26.1796 248.667 24.6L241.791 24.6031Z" fill="#808080"/>
<path d="M341.941 10.6H385.978C388.764 10.6 391.02 12.6735 391.02 15.2352V30.6857C391.02 33.2472 388.765 35.321 385.978 35.321H370.186L372.353 40.2L362.82 35.321H341.963C339.177 35.321 336.92 33.2474 336.92 30.6857V15.2352C336.898 12.6939 339.154 10.6 341.941 10.6Z" fill="#808080"/>
<path d="M340.37 14.3127C340.671 13.9208 341.123 13.7145 341.726 13.6733C342.823 13.5907 343.447 14.0858 343.597 15.1585C344.264 19.4699 344.996 23.121 345.771 26.1122L350.482 17.5102C350.913 16.7263 351.45 16.3138 352.096 16.2725C353.043 16.2106 353.623 16.7882 353.86 18.0053C354.398 20.7489 355.086 23.0798 355.904 25.0601C356.463 19.8204 357.41 16.0457 358.744 13.7145C359.067 13.137 359.54 12.8482 360.164 12.8069C360.659 12.7656 361.111 12.91 361.52 13.2195C361.928 13.5289 362.144 13.9208 362.187 14.3953C362.208 14.7666 362.143 15.076 361.971 15.3854C361.132 16.8706 360.444 19.3667 359.884 22.8321C359.347 26.1946 359.153 28.8143 359.282 30.6915C359.325 31.2072 359.239 31.661 359.024 32.053C358.766 32.5068 358.378 32.7543 357.884 32.7956C357.324 32.8368 356.743 32.5893 356.184 32.0323C354.183 30.0726 352.591 27.1435 351.429 23.2447C350.031 25.885 348.998 27.8655 348.331 29.1856C347.062 31.5166 345.986 32.713 345.082 32.7749C344.501 32.8161 344.007 32.3417 343.576 31.3515C342.479 28.6491 341.296 23.4303 340.026 15.6948C339.94 15.1584 340.069 14.684 340.37 14.3127L340.37 14.3127ZM386.607 17.5513C385.832 16.2517 384.692 15.4678 383.164 15.1583C382.756 15.0758 382.368 15.0346 382.003 15.0346C379.937 15.0346 378.259 16.066 376.947 18.1289C375.828 19.8823 375.269 21.8214 375.269 23.946C375.269 25.5343 375.613 26.8957 376.301 28.0304C377.076 29.3299 378.216 30.1139 379.744 30.4233C380.152 30.5058 380.54 30.5471 380.905 30.5471C382.992 30.5471 384.67 29.5157 385.961 27.4528C387.08 25.6788 387.64 23.7397 387.64 21.6151C387.661 20.0061 387.295 18.6653 386.607 17.5513ZM383.896 23.2653C383.595 24.6268 383.057 25.6375 382.261 26.3184C381.637 26.8547 381.056 27.0816 380.518 26.9785C380.002 26.8753 379.571 26.4421 379.249 25.6377C378.991 24.9982 378.861 24.3587 378.861 23.7605C378.861 23.2448 378.904 22.7291 379.012 22.2546C379.206 21.4089 379.571 20.5837 380.152 19.7998C380.862 18.789 381.615 18.3765 382.39 18.5209C382.906 18.624 383.337 19.0572 383.659 19.8617C383.918 20.5012 384.047 21.1407 384.047 21.7389C384.047 22.2752 384.004 22.7909 383.896 23.2653ZM373.138 17.5513C372.364 16.2517 371.202 15.4678 369.696 15.1583C369.287 15.0758 368.9 15.0346 368.534 15.0346C366.469 15.0346 364.791 16.066 363.478 18.1289C362.359 19.8823 361.8 21.8214 361.8 23.946C361.8 25.5343 362.144 26.8957 362.833 28.0304C363.607 29.3299 364.748 30.1139 366.275 30.4233C366.684 30.5058 367.071 30.5471 367.437 30.5471C369.524 30.5471 371.202 29.5157 372.493 27.4528C373.612 25.6788 374.171 23.7397 374.171 21.6151C374.171 20.0061 373.827 18.6653 373.138 17.5513ZM370.406 23.2653C370.105 24.6268 369.567 25.6375 368.771 26.3184C368.147 26.8547 367.566 27.0816 367.028 26.9785C366.512 26.8753 366.081 26.4421 365.759 25.6377C365.501 24.9982 365.371 24.3587 365.371 23.7605C365.371 23.2448 365.415 22.7291 365.522 22.2546C365.716 21.4089 366.081 20.5837 366.662 19.7998C367.372 18.789 368.125 18.3765 368.9 18.5209C369.416 18.624 369.847 19.0572 370.169 19.8617C370.428 20.5012 370.557 21.1407 370.557 21.7389C370.578 22.2752 370.514 22.7909 370.406 23.2653Z" fill="#E5E5E5"/>
<path d="M575.985 16.8629C575.213 17.5034 575.02 18.6056 575.02 18.6056L572.525 28.1982L570.475 20.3484C570.282 19.5142 569.896 18.4864 569.317 17.7715C568.604 16.8629 567.119 16.8033 566.941 16.8033C566.807 16.8033 565.337 16.8629 564.564 17.7715C563.985 18.4864 563.599 19.5142 563.406 20.3484L561.475 28.1982L558.98 18.6056C558.98 18.6056 558.787 17.5778 558.015 16.8629C556.797 15.7606 555 16.0287 555 16.0287L559.752 33.9776C559.752 33.9776 561.297 34.1116 562.069 33.7243C563.094 33.203 563.614 32.8306 564.193 30.3729C564.772 28.1833 566.317 21.8081 566.436 21.3612C566.495 21.1676 566.629 20.5867 567.015 20.5867C567.401 20.5867 567.535 21.108 567.594 21.3612C567.728 21.8081 569.257 28.1833 569.837 30.3729C570.475 32.8157 570.921 33.203 571.96 33.7243C572.733 34.1116 574.277 33.9776 574.277 33.9776L579 16.0287C579 16.0287 577.203 15.7755 575.985 16.8629Z" fill="#808080"/>
<path d="M584 19C584 19 583.694 19.4462 583.097 19.8329C582.681 20.0858 582.319 20.2196 581.903 20.4725C581.181 20.8592 581 21.2459 581 21.826V22.0193V22.9861V23.1794V33.9776C581 33.9776 582.139 34.1115 582.861 33.7247C583.819 33.2042 584 32.6985 584 30.5121V19.7139V19Z" fill="#808080"/>
<path d="M597.338 25.0358L604 16.0845C604 16.0845 601.243 15.6376 599.816 16.7994C598.897 17.5143 597.978 18.8548 597.978 18.8548L595.566 22.0719C595.418 22.2655 595.287 22.3996 595.074 22.3996C594.861 22.3996 594.647 22.2059 594.582 22.0719L592.17 18.8548C592.17 18.8548 591.185 17.5739 590.332 16.7994C588.921 15.6376 586.148 16.0845 586.148 16.0845L592.596 25.0209L586 33.9574C586 33.9574 588.904 34.2851 590.332 33.1233C591.251 32.4084 592.104 31.1871 592.104 31.1871L594.516 27.97C594.664 27.7763 594.795 27.6423 595.008 27.6423C595.222 27.6423 595.435 27.8359 595.5 27.97L597.912 31.1871C597.912 31.1871 598.831 32.4084 599.685 33.1233C601.096 34.2851 603.934 33.9574 603.934 33.9574L597.338 25.0358Z" fill="#808080"/>
<path d="M414.429 33V17H420.429C421.658 17 422.689 17.2292 423.522 17.6875C424.361 18.1458 424.994 18.776 425.421 19.5781C425.853 20.375 426.069 21.2812 426.069 22.2969C426.069 23.3229 425.853 24.2344 425.421 25.0313C424.989 25.8281 424.351 26.4557 423.507 26.9141C422.663 27.3672 421.624 27.5937 420.39 27.5937H416.413V25.2109H419.999C420.718 25.2109 421.306 25.0859 421.765 24.8359C422.223 24.5859 422.562 24.2422 422.78 23.8047C423.004 23.3672 423.116 22.8646 423.116 22.2969C423.116 21.7292 423.004 21.2292 422.78 20.7969C422.562 20.3646 422.22 20.0286 421.757 19.7891C421.299 19.5443 420.707 19.4219 419.983 19.4219H417.327V33H414.429ZM431.29 25.9687V33H428.462V17H431.228V23.0391H431.368C431.649 22.362 432.084 21.8281 432.673 21.4375C433.267 21.0417 434.022 20.8438 434.938 20.8438C435.772 20.8438 436.498 21.0182 437.118 21.3672C437.738 21.7161 438.217 22.2266 438.556 22.8984C438.899 23.5703 439.071 24.3906 439.071 25.3594V33H436.243V25.7969C436.243 24.9896 436.035 24.362 435.618 23.9141C435.207 23.4609 434.629 23.2344 433.884 23.2344C433.384 23.2344 432.936 23.3437 432.54 23.5625C432.149 23.776 431.842 24.0859 431.618 24.4922C431.399 24.8984 431.29 25.3906 431.29 25.9687ZM447.188 33.2344C446.017 33.2344 445.001 32.9766 444.142 32.4609C443.282 31.9453 442.616 31.224 442.142 30.2969C441.673 29.3698 441.438 28.2865 441.438 27.0469C441.438 25.8073 441.673 24.7214 442.142 23.7891C442.616 22.8568 443.282 22.1328 444.142 21.6172C445.001 21.1016 446.017 20.8438 447.188 20.8438C448.36 20.8438 449.376 21.1016 450.235 21.6172C451.095 22.1328 451.759 22.8568 452.228 23.7891C452.701 24.7214 452.938 25.8073 452.938 27.0469C452.938 28.2865 452.701 29.3698 452.228 30.2969C451.759 31.224 451.095 31.9453 450.235 32.4609C449.376 32.9766 448.36 33.2344 447.188 33.2344ZM447.204 30.9687C447.84 30.9687 448.371 30.7943 448.798 30.4453C449.225 30.0911 449.543 29.6172 449.751 29.0234C449.965 28.4297 450.071 27.7682 450.071 27.0391C450.071 26.3047 449.965 25.6406 449.751 25.0469C449.543 24.4479 449.225 23.9714 448.798 23.6172C448.371 23.263 447.84 23.0859 447.204 23.0859C446.553 23.0859 446.011 23.263 445.579 23.6172C445.152 23.9714 444.832 24.4479 444.618 25.0469C444.41 25.6406 444.306 26.3047 444.306 27.0391C444.306 27.7682 444.41 28.4297 444.618 29.0234C444.832 29.6172 445.152 30.0911 445.579 30.4453C446.011 30.7943 446.553 30.9687 447.204 30.9687ZM461.331 21V23.1875H454.433V21H461.331ZM456.136 18.125H458.964V29.3906C458.964 29.7708 459.021 30.0625 459.136 30.2656C459.256 30.4635 459.412 30.599 459.604 30.6719C459.797 30.7448 460.011 30.7812 460.245 30.7812C460.422 30.7812 460.584 30.7682 460.729 30.7422C460.881 30.7161 460.995 30.6927 461.073 30.6719L461.55 32.8828C461.399 32.9349 461.183 32.9922 460.901 33.0547C460.625 33.1172 460.287 33.1536 459.886 33.1641C459.177 33.1849 458.539 33.0781 457.972 32.8437C457.404 32.6042 456.953 32.2344 456.62 31.7344C456.292 31.2344 456.131 30.6094 456.136 29.8594V18.125ZM468.802 33.2344C467.63 33.2344 466.614 32.9766 465.755 32.4609C464.896 31.9453 464.229 31.224 463.755 30.2969C463.286 29.3698 463.052 28.2865 463.052 27.0469C463.052 25.8073 463.286 24.7214 463.755 23.7891C464.229 22.8568 464.896 22.1328 465.755 21.6172C466.614 21.1016 467.63 20.8438 468.802 20.8438C469.974 20.8438 470.989 21.1016 471.849 21.6172C472.708 22.1328 473.372 22.8568 473.841 23.7891C474.315 24.7214 474.552 25.8073 474.552 27.0469C474.552 28.2865 474.315 29.3698 473.841 30.2969C473.372 31.224 472.708 31.9453 471.849 32.4609C470.989 32.9766 469.974 33.2344 468.802 33.2344ZM468.817 30.9687C469.453 30.9687 469.984 30.7943 470.411 30.4453C470.838 30.0911 471.156 29.6172 471.364 29.0234C471.578 28.4297 471.685 27.7682 471.685 27.0391C471.685 26.3047 471.578 25.6406 471.364 25.0469C471.156 24.4479 470.838 23.9714 470.411 23.6172C469.984 23.263 469.453 23.0859 468.817 23.0859C468.166 23.0859 467.625 23.263 467.192 23.6172C466.765 23.9714 466.445 24.4479 466.231 25.0469C466.023 25.6406 465.919 26.3047 465.919 27.0391C465.919 27.7682 466.023 28.4297 466.231 29.0234C466.445 29.6172 466.765 30.0911 467.192 30.4453C467.625 30.7943 468.166 30.9687 468.817 30.9687ZM477.077 33V17H483.077C484.306 17 485.338 17.2135 486.171 17.6406C487.009 18.0677 487.642 18.6667 488.069 19.4375C488.502 20.2031 488.718 21.0964 488.718 22.1172C488.718 23.1432 488.499 24.0339 488.062 24.7891C487.629 25.5391 486.991 26.1198 486.147 26.5312C485.304 26.9375 484.267 27.1406 483.038 27.1406H478.765V24.7344H482.647C483.366 24.7344 483.955 24.6354 484.413 24.4375C484.871 24.2344 485.21 23.9401 485.429 23.5547C485.653 23.1641 485.765 22.6849 485.765 22.1172C485.765 21.5495 485.653 21.0651 485.429 20.6641C485.205 20.2578 484.864 19.9505 484.405 19.7422C483.947 19.5286 483.356 19.4219 482.632 19.4219H479.976V33H477.077ZM485.343 25.75L489.304 33H486.069L482.179 25.75H485.343ZM496.323 33.2344C495.151 33.2344 494.136 32.9766 493.276 32.4609C492.417 31.9453 491.75 31.224 491.276 30.2969C490.808 29.3698 490.573 28.2865 490.573 27.0469C490.573 25.8073 490.808 24.7214 491.276 23.7891C491.75 22.8568 492.417 22.1328 493.276 21.6172C494.136 21.1016 495.151 20.8438 496.323 20.8438C497.495 20.8438 498.511 21.1016 499.37 21.6172C500.229 22.1328 500.894 22.8568 501.362 23.7891C501.836 24.7214 502.073 25.8073 502.073 27.0469C502.073 28.2865 501.836 29.3698 501.362 30.2969C500.894 31.224 500.229 31.9453 499.37 32.4609C498.511 32.9766 497.495 33.2344 496.323 33.2344ZM496.339 30.9687C496.974 30.9687 497.506 30.7943 497.933 30.4453C498.36 30.0911 498.677 29.6172 498.886 29.0234C499.099 28.4297 499.206 27.7682 499.206 27.0391C499.206 26.3047 499.099 25.6406 498.886 25.0469C498.677 24.4479 498.36 23.9714 497.933 23.6172C497.506 23.263 496.974 23.0859 496.339 23.0859C495.688 23.0859 495.146 23.263 494.714 23.6172C494.287 23.9714 493.966 24.4479 493.753 25.0469C493.545 25.6406 493.44 26.3047 493.44 27.0391C493.44 27.7682 493.545 28.4297 493.753 29.0234C493.966 29.6172 494.287 30.0911 494.714 30.4453C495.146 30.7943 495.688 30.9687 496.339 30.9687ZM509.708 33.2344C508.536 33.2344 507.521 32.9766 506.661 32.4609C505.802 31.9453 505.135 31.224 504.661 30.2969C504.192 29.3698 503.958 28.2865 503.958 27.0469C503.958 25.8073 504.192 24.7214 504.661 23.7891C505.135 22.8568 505.802 22.1328 506.661 21.6172C507.521 21.1016 508.536 20.8438 509.708 20.8438C510.88 20.8438 511.896 21.1016 512.755 21.6172C513.614 22.1328 514.278 22.8568 514.747 23.7891C515.221 24.7214 515.458 25.8073 515.458 27.0469C515.458 28.2865 515.221 29.3698 514.747 30.2969C514.278 31.224 513.614 31.9453 512.755 32.4609C511.896 32.9766 510.88 33.2344 509.708 33.2344ZM509.724 30.9687C510.359 30.9687 510.89 30.7943 511.317 30.4453C511.744 30.0911 512.062 29.6172 512.271 29.0234C512.484 28.4297 512.591 27.7682 512.591 27.0391C512.591 26.3047 512.484 25.6406 512.271 25.0469C512.062 24.4479 511.744 23.9714 511.317 23.6172C510.89 23.263 510.359 23.0859 509.724 23.0859C509.073 23.0859 508.531 23.263 508.099 23.6172C507.672 23.9714 507.351 24.4479 507.138 25.0469C506.929 25.6406 506.825 26.3047 506.825 27.0391C506.825 27.7682 506.929 28.4297 507.138 29.0234C507.351 29.6172 507.672 30.0911 508.099 30.4453C508.531 30.7943 509.073 30.9687 509.724 30.9687ZM517.858 33V21H520.562V23.0391H520.702C520.952 22.3516 521.366 21.8151 521.944 21.4297C522.522 21.0391 523.213 20.8438 524.015 20.8438C524.827 20.8438 525.512 21.0417 526.069 21.4375C526.632 21.8281 527.028 22.362 527.257 23.0391H527.382C527.647 22.3724 528.095 21.8411 528.726 21.4453C529.361 21.0443 530.114 20.8438 530.983 20.8438C532.088 20.8438 532.989 21.1927 533.687 21.8906C534.384 22.5885 534.733 23.6068 534.733 24.9453V33H531.897V25.3828C531.897 24.638 531.7 24.0937 531.304 23.75C530.908 23.401 530.424 23.2266 529.851 23.2266C529.168 23.2266 528.634 23.4401 528.249 23.8672C527.869 24.2891 527.679 24.8385 527.679 25.5156V33H524.905V25.2656C524.905 24.6458 524.718 24.151 524.343 23.7812C523.973 23.4115 523.489 23.2266 522.89 23.2266C522.483 23.2266 522.114 23.3307 521.78 23.5391C521.447 23.7422 521.181 24.0312 520.983 24.4062C520.785 24.776 520.687 25.2083 520.687 25.7031V33H517.858Z" fill="#808080"/>
<path d="M627.039 17.7635V24.2834C627.039 24.2834 629.266 24.2834 630.458 24.1901C631.396 24.0208 631.568 23.9275 631.741 22.9606L632.086 21.5444H633.105L632.933 24.6394L633.023 27.8104H631.995L631.741 26.5721C631.486 25.6909 631.141 25.5119 630.458 25.4272C629.604 25.3339 627.039 25.3339 627.039 25.3339V30.8023C627.039 31.8539 627.556 32.3031 628.748 32.3031H632.34C633.45 32.3031 634.559 32.2098 635.251 30.5397L636.18 28.4203H637.042C636.952 28.8609 636.525 32.7437 636.443 33.6173C636.443 33.6173 633.196 33.5327 631.831 33.5327H625.674L622 33.6173V32.6591L623.192 32.3878C624.055 32.2098 624.309 31.9472 624.309 31.2429C624.309 31.2429 624.4 28.8609 624.4 24.8922C624.4 20.9334 624.309 18.5502 624.309 18.5502C624.309 17.7613 624.055 17.5833 623.192 17.4054L622 17.1449V16.178L625.592 16.2539H632.431C633.796 16.2539 636.097 16 636.097 16C636.097 16 636.014 17.4922 635.924 21.0191H634.987L634.641 19.7809C634.305 18.1954 633.794 17.4064 632.85 17.4064H627.474C627.039 17.4075 627.039 17.4922 627.039 17.7635ZM640.881 18.4591H641.909V22.164L645.418 21.986L645.246 23.6649L641.826 23.3936V29.9222C641.826 31.7703 642.426 32.4822 643.454 32.4822C644.383 32.4822 645.073 31.9483 645.328 31.5077L645.837 32.1263C645.328 33.3558 643.881 33.9744 642.508 33.9744C640.807 33.9744 639.425 32.9228 639.425 30.8967V23.4858H637.386V22.6046C639.097 22.4266 640.371 21.3664 640.881 18.4591ZM648.237 29.8278L648.919 31.5066C649.174 32.2098 649.773 32.9228 651.138 32.9228C652.593 32.9228 653.193 32.1263 653.193 31.1593C653.193 28.1576 647.464 29.0399 647.464 24.9866C647.464 22.6979 649.256 21.629 651.565 21.629C652.593 21.629 654.13 21.807 654.902 22.1629C654.73 23.0441 654.639 24.189 654.639 25.0713L653.792 25.1559L653.193 23.3925C653.02 22.9606 652.33 22.6035 651.483 22.6035C650.455 22.6035 649.428 23.0441 649.428 24.189C649.428 26.9194 655.33 26.3084 655.33 30.3617C655.33 32.6591 653.365 33.8886 650.965 33.8886C649.174 33.8886 647.373 33.1767 647.373 33.1767C647.546 32.1252 647.464 30.9814 647.373 29.8278H648.237ZM654.903 38.2892C655.158 37.3223 655.331 36.0938 655.503 34.9402L656.441 34.8556L656.786 36.7037C656.868 37.1443 657.122 37.5002 657.805 37.5002C658.915 37.5002 660.37 36.797 661.742 34.3292C661.134 32.8284 659.342 27.9873 657.715 24.2823C657.288 23.3078 657.206 23.2221 656.613 23.0441L656.178 22.8748V21.9849L658.75 22.0783L661.906 21.9003V22.7826L661.134 22.9606C660.535 23.0452 660.287 23.3925 660.287 23.7495C660.287 23.8428 660.287 23.9275 660.369 24.1055C660.533 24.6394 661.906 28.5993 662.934 31.244C663.781 29.3959 665.409 25.2504 665.664 24.546C665.754 24.1901 665.836 24.1055 665.836 23.8428C665.836 23.3936 665.582 23.1309 664.989 22.9616L664.381 22.7826V21.9014L666.781 21.986L669 21.9014V22.7826L668.573 23.1298C667.718 23.4858 667.628 23.5704 667.29 24.2823L663.534 33.3536C661.307 38.5594 658.997 39 657.377 39C656.35 39.0011 655.578 38.7298 654.903 38.2892Z" fill="#808080"/>
<path d="M582.2 16.3298C581.363 16.7924 581 17.656 581 20C581 20 581.418 19.5374 582.088 19.2598C582.576 19.0593 582.925 18.7972 583.176 18.5967C583.902 17.9953 584.013 17.2705 584.013 16.0059C583.999 16.0059 582.855 15.9288 582.2 16.3298Z" fill="#808080"/>
</svg>
